<svg fill="none" xmlns="http://www.w3.org/2000/svg" viewBox="0 0 36 36">
  <path d="M3.57 3.57C4.8 2.35 6.37 1.7 8.7 1.35 11.04 1 14.02 1 17.99 1c3.98 0 6.96 0 9.32.35 2.31.34 3.89 1 5.12 2.22 1.22 1.22 1.88 2.8 2.22 5.12.35 2.35.35 5.33.35 9.3 0 3.98 0 6.96-.35 9.32-.34 2.31-1 3.89-2.22 5.12-1.23 1.22-2.8 1.88-5.13 2.22-2.35.35-5.33.35-9.3.35-3.97 0-6.96 0-9.3-.35-2.33-.34-3.9-1-5.13-2.22-1.22-1.23-1.88-2.8-2.22-5.13C1 24.95 1 21.97 1 18c0-3.97 0-6.96.35-9.3.34-2.33 1-3.9 2.22-5.13Z" stroke="currentColor" stroke-width="2"/>
  <path d="M15.9 28v-8.5H13v-3.38h2.9v-2.66c0-2.89 1.8-4.46 4.44-4.46 1.26 0 2.35.1 2.66.13v3.02h-1.83c-1.43 0-1.7.67-1.7 1.65v2.32h3.23l-.45 3.38h-2.78V28" fill="currentColor"/>
</svg>
