<svg fill="none" xmlns="http://www.w3.org/2000/svg" viewBox="0 0 81 81">
  <path d="M7.12 7.12c3.01-3 6.84-4.55 12.15-5.33C24.62 1 31.37 1 40.16 1c8.8 0 15.54 0 20.89.79 5.32.77 9.15 2.31 12.16 5.32 3.01 3.01 4.56 6.84 5.34 12.16.78 5.35.78 12.1.78 20.89 0 8.8 0 15.54-.78 20.89-.78 5.32-2.33 9.15-5.34 12.16s-6.85 4.56-12.17 5.34c-5.35.78-12.1.78-20.88.78-8.79 0-15.53 0-20.88-.78-5.32-.78-9.15-2.33-12.16-5.34-3-3.01-4.55-6.85-5.33-12.17C1 55.7 1 48.94 1 40.16c0-8.79 0-15.53.79-20.88.78-5.32 2.32-9.15 5.33-12.16Z" fill="#000" stroke="#000" stroke-width="2"/>
  <path d="M16.73 43.56c.44-.34.77-.81.92-1.35l1.81.65a3.96 3.96 0 0 1-1.56 2.08c-.8.52-1.73.79-2.68.76a4.5 4.5 0 0 1-3.44-1.37 5.12 5.12 0 0 1-1.3-3.67c0-1.5.44-2.72 1.32-3.65a4.48 4.48 0 0 1 3.42-1.4c.95-.03 1.9.23 2.7.74.74.5 1.29 1.26 1.53 2.12l-1.8.64a2.6 2.6 0 0 0-.92-1.34 2.49 2.49 0 0 0-1.51-.47 2.5 2.5 0 0 0-1.75.65c-.5.47-.82 1.1-.92 1.78h3.68v1.6H12.5c.1.86.4 1.53.87 2a2.53 2.53 0 0 0 1.84.7 2.5 2.5 0 0 0 1.52-.47Zm4.95.76a5.15 5.15 0 0 1-1.29-3.66c-.02-.9.19-1.8.6-2.62a4.4 4.4 0 0 1 4.14-2.42 4.6 4.6 0 0 1 2.67.75 3.8 3.8 0 0 1 1.52 2.12l-1.87.65a2.71 2.71 0 0 0-.87-1.37 2.32 2.32 0 0 0-1.48-.47 2.4 2.4 0 0 0-1.95.9 3.82 3.82 0 0 0-.74 2.46c0 1.04.25 1.86.73 2.46a2.38 2.38 0 0 0 1.96.9c.53.02 1.05-.14 1.48-.46.42-.36.73-.84.88-1.37l1.86.64c-.25.86-.78 1.6-1.51 2.11-.8.53-1.73.8-2.68.76a4.5 4.5 0 0 1-3.45-1.38Zm16.3-6.5v7.75h-1.86v-6.06h-3.37v6.06H30.9v-7.75h7.08Zm2.78 6.78a3.93 3.93 0 0 1-1.1-2.9c0-1.2.37-2.18 1.1-2.91a3.9 3.9 0 0 1 2.9-1.1c1.23 0 2.2.36 2.92 1.08.73.73 1.09 1.7 1.1 2.92a3.9 3.9 0 0 1-1.12 2.91 3.96 3.96 0 0 1-2.9 1.1 3.9 3.9 0 0 1-2.9-1.1Zm4.45-1.1a2.7 2.7 0 0 0 .56-1.8c0-.76-.19-1.36-.56-1.8a2.13 2.13 0 0 0-3.08 0 2.71 2.71 0 0 0-.55 1.8c0 .76.19 1.35.55 1.8a2.13 2.13 0 0 0 3.08 0Zm11.19.45v1.62c-.2.02-.48.03-.82.03-.56 0-.97-.13-1.26-.4-.28-.27-.42-.66-.42-1.2v-1.53h-2.67v3.1h-1.86V35.23h1.86v5.54h1.22l1.88-2.95h1.97l-2 2.98h1.38v2.76a.36.36 0 0 0 .39.4l.34-.01Zm1.66-8.82h2.03v1.65h-2.03v-1.65Zm.08 2.69H60v7.75h-1.87v-7.75Zm9.5 0h1.86v7.75h-1.81v-5.11l-3.44 5.11h-1.87v-7.75h1.84v5.12l3.42-5.12Zm-3.42-1.23a2.06 2.06 0 0 1-.78-1.38l1.43-.21c.03.26.16.5.36.67a1.24 1.24 0 0 0 1.45 0c.2-.17.34-.4.37-.67l1.42.2a2.07 2.07 0 0 1-.77 1.39c-.43.34-1.01.5-1.74.5-.72 0-1.3-.16-1.74-.5Z" fill="#fff"/>
</svg>
