<svg fill="none" xmlns="http://www.w3.org/2000/svg" viewBox="0 0 36 36">
  <path fill-rule="evenodd" clip-rule="evenodd" d="M4.28 4.28C3.26 5.3 2.66 6.64 2.34 8.84 2 11.1 2 14 2 18s0 6.9.34 9.16c.32 2.2.92 3.54 1.94 4.56 1.02 1.02 2.36 1.62 4.56 1.94C11.1 34 14 34 18 34s6.9 0 9.16-.34c2.2-.32 3.54-.92 4.56-1.94 1.02-1.02 1.62-2.37 1.94-4.56C34 24.9 34 22 34 18s0-6.9-.34-9.17c-.32-2.19-.92-3.53-1.94-4.56-1.02-1.01-2.37-1.61-4.56-1.93C24.9 2 22 2 18 2s-6.9 0-9.17.34c-2.19.32-3.53.92-4.55 1.94Zm28.85-1.42C36 5.72 36 10.1 36 18c0 7.89 0 12.27-2.87 15.13C30.27 36 25.88 36 18 36c-7.89 0-12.28 0-15.13-2.87C0 30.27 0 25.88 0 18 0 10.1 0 5.72 2.87 2.87 5.72 0 10.1 0 18 0c7.89 0 12.27 0 15.13 2.86Z" fill="#fff"/>
  <path fill-rule="evenodd" clip-rule="evenodd" d="M18 24a6 6 0 1 0 0-12 6 6 0 0 0 0 12Zm0 2a8 8 0 1 0 0-16 8 8 0 0 0 0 16Z" fill="#fff"/>
  <circle cx="26.5" cy="8.5" r="2.5" fill="#fff"/>
</svg>