<svg fill="none" xmlns="http://www.w3.org/2000/svg" viewBox="0 0 36 36">
  <path d="M3.57 3.57C4.8 2.35 6.37 1.7 8.7 1.35 11.04 1 14.02 1 17.99 1c3.98 0 6.96 0 9.32.35 2.31.34 3.89 1 5.12 2.22 1.22 1.22 1.88 2.8 2.22 5.12.35 2.35.35 5.33.35 9.3 0 3.98 0 6.96-.35 9.32-.34 2.31-1 3.89-2.22 5.12-1.23 1.22-2.8 1.88-5.13 2.22-2.35.35-5.33.35-9.3.35-3.97 0-6.96 0-9.3-.35-2.33-.34-3.9-1-5.13-2.22-1.22-1.23-1.88-2.8-2.22-5.13C1 24.95 1 21.97 1 18c0-3.97 0-6.96.35-9.3.34-2.33 1-3.9 2.22-5.13Z" stroke="currentColor" stroke-width="2"/>
  <path d="m26.94 10.55-3.02 14.42c-.22 1.02-.82 1.28-1.66.8l-4.6-3.44-2.22 2.16c-.24.25-.45.46-.92.46l.33-4.75 8.52-7.8c.37-.34-.08-.52-.57-.19l-10.54 6.73-4.54-1.44c-.98-.31-1-1 .2-1.48l17.75-6.93c.82-.31 1.54.19 1.27 1.46Z" fill="currentColor"/>
</svg>
