<svg fill="none" xmlns="http://www.w3.org/2000/svg" viewBox="0 0 80 80">
  <path d="M6.96 6.96c3-3.02 6.83-4.56 12.15-5.34C24.45.84 31.2.83 39.99.83c8.8 0 15.54 0 20.89.79 5.32.78 9.15 2.32 12.16 5.32 3.02 3.02 4.56 6.85 5.34 12.17.78 5.34.79 12.09.79 20.88 0 8.8 0 15.54-.79 20.89-.78 5.32-2.32 9.15-5.34 12.16-3.01 3.02-6.84 4.56-12.17 5.34-5.34.78-12.1.79-20.88.79s-15.53 0-20.88-.79c-5.32-.78-9.15-2.32-12.15-5.34-3.01-3.01-4.56-6.84-5.34-12.17C.84 55.53.83 48.77.83 40s0-15.53.8-20.88c.77-5.32 2.3-9.16 5.32-12.16Z" stroke="currentColor" stroke-width="2"/>
  <path d="M38.28 65.7c-2.88-2.18-5-5.45-5.68-9.26h-9.27V16.39c5 2.48 8.55 7.97 8.98 13.65l1.4 11.24-.68-.1c-1.5 0-2.8 1.4-2.8 2.8 0 1.29 1 2.4 2.3 2.69l1.69.4c2.8-5.29 4.38-10.46 4.38-15.56 0-4.6-.61-9.16-.68-13.83 0-2.08.79-3.98 2.08-5.46a8.32 8.32 0 0 1 2.08 5.46c0 4.67-.68 9.27-.68 13.83 0 5.07 1.58 10.27 4.38 15.55l1.7-.4c1.28-.28 2.29-1.4 2.29-2.68 0-1.4-1.3-2.8-2.8-2.8l-.68.1 1.4-11.24c.68-5.68 3.98-11.17 8.98-13.65v40.05H47.4a14.38 14.38 0 0 1-5.68 9.27 5.4 5.4 0 0 0-1.68 1.9 6 6 0 0 0-1.76-1.9ZM27.72 42.62c.4-1.5 1.5-2.8 2.87-3.6l-1.11-9.26a14.76 14.76 0 0 0-3.38-7.58v20.4h1.62v.04Zm4.7 11.03c0-1.4.22-2.7.5-3.99l-1.29-.29a5.77 5.77 0 0 1-3.88-3.98h-1.58v8.26h6.25Zm6.14 0c0-1.69-1.29-3.2-2.98-3.38a13 13 0 0 0-.5 3.38h3.48Zm0 2.8h-3.09c.5 2.2 1.58 4.17 3.1 5.89v-5.89Zm4.39-8.66a35.11 35.11 0 0 1-2.99-6.86 34.2 34.2 0 0 1-2.98 6.86 6 6 0 0 1 2.98 1.98 6 6 0 0 1 2.99-1.98Zm1.9 5.86a13 13 0 0 0-.5-3.38 3.44 3.44 0 0 0-2.99 3.38h3.49Zm-.4 2.8h-3.09v5.89c1.51-1.72 2.6-3.7 3.1-5.89Zm9.38-2.8v-8.26h-1.58a5.77 5.77 0 0 1-3.88 3.98l-1.3.3c.3 1.28.5 2.58.5 3.98h6.26Zm0-11.03v-20.4a13.7 13.7 0 0 0-3.38 7.58l-1.11 9.26a5.95 5.95 0 0 1 2.87 3.6h1.62v-.04Z" fill="currentColor"/>
</svg>
