<svg fill="none" xmlns="http://www.w3.org/2000/svg" viewBox="0 0 36 36">
  <path d="M3.57 3.57C4.8 2.35 6.37 1.7 8.7 1.35 11.04 1 14.02 1 17.99 1c3.98 0 6.96 0 9.32.35 2.31.34 3.89 1 5.12 2.22 1.22 1.22 1.88 2.8 2.22 5.12.35 2.35.35 5.33.35 9.3 0 3.98 0 6.96-.35 9.32-.34 2.31-1 3.89-2.22 5.12-1.23 1.22-2.8 1.88-5.13 2.22-2.35.35-5.33.35-9.3.35-3.97 0-6.96 0-9.3-.35-2.33-.34-3.9-1-5.13-2.22-1.22-1.23-1.88-2.8-2.22-5.13C1 24.95 1 21.97 1 18c0-3.97 0-6.96.35-9.3.34-2.33 1-3.9 2.22-5.13Z" stroke="currentColor" stroke-width="2"/>
  <path d="m25.15 13.74.01.49c0 5-3.71 10.77-10.5 10.77A10.2 10.2 0 0 1 9 23.3a7.45 7.45 0 0 0 5.47-1.57 3.7 3.7 0 0 1-3.45-2.62 3.8 3.8 0 0 0 1.67-.07 3.76 3.76 0 0 1-2.96-3.72v-.05c.5.28 1.06.46 1.67.48a3.8 3.8 0 0 1-1.14-5.06 10.4 10.4 0 0 0 7.6 3.96 4.92 4.92 0 0 1-.09-.86 3.74 3.74 0 0 1 3.7-3.79c1.05 0 2.01.46 2.69 1.2a7.15 7.15 0 0 0 2.34-.92 3.76 3.76 0 0 1-1.62 2.09c.74-.08 1.46-.3 2.12-.59a8.05 8.05 0 0 1-1.85 1.96Z" fill="currentColor"/>
</svg>
